#!OML:ASF X:\für Bonn\!DataBase\2005_08_10_Bjorn_Final\c3d\bjorn.ASF
:FULLY-SPECIFIED
:DEGREES
61
root 27.8365 18.6801 -9.09194 187.266 -20.4748 -170.07
lowerback -2.01768 -4.34057 5.35421
upperback 7.68951 -6.87753 1.86442
thorax 8.89435 -3.2763 -1.67152
lowerneck 0.514129 10.196 3.2896
upperneck -3.31737 13.4744 -7.86666
head -0.323531 6.7796 -3.02073
rclavicle -2.46493e-014 4.77083e-015
rhumerus -61.6995 4.18286 -87.2271
rradius 57.4893
rwrist -5.58889
rhand -27.0312 25.8738
rfingers 7.12502
rthumb -0.450202 -4.10542
lclavicle -2.46493e-014 4.77083e-015
lhumerus -14.1174 -34.2671 77.9507
lradius 102.406
lwrist -3.46535
lhand -40.3468 -21.6647
lfingers 7.12502
lthumb -13.3021 7.89073
rfemur -51.8714 -6.20427 21.5613
rtibia 51.4053
rfoot 6.80702 21.1106
rtoes -23.2038
lfemur 16.4285 -5.74853 -15.1266
ltibia 23.8445
lfoot 12.1735 -3.56609
ltoes -18.9493
62
root 27.7481 18.6782 -9.33753 187.111 -20.5964 -169.785
lowerback -2.09745 -4.37938 5.52306
upperback 7.62266 -6.95982 2.05237
thorax 8.87078 -3.31475 -1.57737
lowerneck 0.872943 10.2723 3.43334
upperneck -3.43916 13.5739 -8.11422
head -0.389085 6.83895 -3.15077
rclavicle -1.03368e-014 -3.65764e-014
rhumerus -61.2515 4.28299 -87.1153
rradius 58.1666
rwrist -5.68323
rhand -27.307 25.9848
rfingers 7.12502
rthumb -0.716604 -3.99373
lclavicle -1.03368e-014 -3.65764e-014
lhumerus -14.8507 -34.5653 78.4489
lradius 102.298
lwrist -3.48024
lhand -40.5472 -22.1078
lfingers 7.12502
lthumb -13.4953 7.43498
rfemur -50.5393 -5.82717 21.7116
rtibia 51.1818
rfoot 6.3866 20.9515
rtoes -21.6354
lfemur 15.9589 -6.09786 -15.0785
ltibia 25.9615
lfoot 12.7074 -2.4956
ltoes -19.7032
63
root 27.6559 18.6642 -9.5774 186.912 -20.6962 -169.47
lowerback -2.08077 -4.39665 5.75064
upperback 7.56755 -7.01587 2.24545
thorax 8.79991 -3.34075 -1.49905
lowerneck 0.899577 10.3512 3.53904
upperneck -3.37414 13.6812 -8.31664
head -0.34343 6.89289 -3.23042
rclavicle -8.34896e-015 -2.38542e-014
rhumerus -60.8047 4.38708 -87.0239
rradius 58.9997
rwrist -5.76773
rhand -27.3415 26.1054
rfingers 7.12502
rthumb -0.749897 -3.87307
lclavicle -8.34896e-015 -2.38542e-014
lhumerus -15.808 -34.753 79.116
lradius 102.155
lwrist -3.51826
lhand -40.8598 -22.6864
lfingers 7.12502
lthumb -13.7965 6.83611
rfemur -49.1291 -5.56395 21.9539
rtibia 51.1136
rfoot 5.11665 21.178
rtoes -22.263
lfemur 15.3235 -6.34905 -15.0147
ltibia 28.4185
lfoot 12.9186 -1.51611
ltoes -21.8204
64
root 27.5595 18.634 -9.82023 186.722 -20.7739 -169.18
lowerback -2.13061 -4.38142 6.00871
upperback 7.53662 -7.03533 2.40275
thorax 8.78941 -3.34264 -1.47936
lowerneck 0.802443 10.4086 3.69137
upperneck -3.26497 13.7608 -8.54039
head -0.258709 6.92897 -3.31529
rclavicle -7.95139e-015 -2.38542e-015
rhumerus -60.2821 4.3736 -87.0004
rradius 59.8743
rwrist -5.76332
rhand -27.5075 26.0367
rfingers 7.12502
rthumb -0.910217 -3.94111
lclavicle -7.95139e-015 -2.38542e-015
lhumerus -16.9617 -34.9036 79.9249
lradius 102.005
lwrist -3.53521
lhand -41.172 -23.1791
lfingers 7.12502
lthumb -14.0974 6.32276
rfemur -47.7283 -5.31105 22.1584
rtibia 51.1893
rfoot 3.49617 21.5916
rtoes -22.469
lfemur 14.5347 -6.46651 -14.9605
ltibia 31.1591
lfoot 12.9768 -0.747314
ltoes -24.5669
65
root 27.4652 18.59 -10.0621 186.503 -20.8699 -168.868
lowerback -2.14633 -4.34818 6.26913
upperback 7.51865 -7.03484 2.57925
thorax 8.77724 -3.33735 -1.43683
lowerneck 0.615889 10.4664 3.78359
upperneck -3.1639 13.8378 -8.72058
head -0.168569 6.96147 -3.37056
rclavicle -7.71285e-014 -8.74653e-015
rhumerus -59.8317 4.36621 -87.0131
rradius 60.9313
rwrist -5.83807
rhand -27.8905 25.9495
rfingers 7.12502
rthumb -1.28017 -4.02636
lclavicle -7.71285e-014 -8.74653e-015
lhumerus -17.9975 -34.9603 80.7516
lradius 101.642
lwrist -3.41914
lhand -41.307 -23.6585
lfingers 7.12502
lthumb -14.2275 5.83421
rfemur -46.2966 -5.06492 22.3902
rtibia 51.2908
rfoot 1.69358 22.0178
rtoes -21.7681
lfemur 13.6924 -6.59702 -14.8532
ltibia 34.0045
lfoot 12.9393 0.137017
ltoes -26.265
66
root 27.3706 18.5317 -10.302 186.234 -20.9791 -168.534
lowerback -2.15207 -4.30178 6.57637
upperback 7.55345 -7.02892 2.73887
thorax 8.81185 -3.32577 -1.43871
lowerneck 0.31862 10.5103 3.93564
upperneck -3.01909 13.8969 -8.95419
head -0.0375177 6.98096 -3.44472
rclavicle -5.725e-014 4.21423e-014
rhumerus -59.3476 4.45262 -87.1437
rradius 62.0682
rwrist -6.10235
rhand -28.4064 25.8978
rfingers 7.12502
rthumb -1.77839 -4.07452
lclavicle -5.725e-014 4.21423e-014
lhumerus -19.2491 -34.8736 81.8374
lradius 101.249
lwrist -3.57109
lhand -41.4413 -24.48
lfingers 7.12502
lthumb -14.3568 5.00352
rfemur -44.8534 -4.81125 22.6303
rtibia 51.4577
rfoot -0.323474 22.4895
rtoes -20.8512
lfemur 12.8093 -6.80756 -14.7304
ltibia 36.9926
lfoot 12.7998 1.12379
ltoes -26.3463
67
root 27.2694 18.4949 -10.5499 185.991 -21.1106 -168.219
lowerback -2.16639 -4.25477 6.86487
upperback 7.55868 -7.0177 2.90844
thorax 8.8226 -3.31352 -1.41863
lowerneck 0.0931996 10.5489 4.05635
upperneck -2.8912 13.9485 -9.18985
head 0.0737449 6.99829 -3.52052
rclavicle -4.6118e-014 -3.97569e-015
rhumerus -58.7514 4.33113 -87.2754
rradius 63.0373
rwrist -6.10256
rhand -28.9821 26.0103
rfingers 7.12502
rthumb -2.33445 -3.95668
lclavicle -4.6118e-014 -3.97569e-015
lhumerus -20.4815 -34.6564 82.872
lradius 100.805
lwrist -3.79479
lhand -41.5477 -25.3214
lfingers 7.12502
lthumb -14.4594 4.15488
rfemur -43.3222 -4.57484 22.8403
rtibia 51.542
rfoot -2.46746 23.182
rtoes -19.6983
lfemur 11.8761 -7.08449 -14.6128
ltibia 39.9971
lfoot 12.4401 2.11997
ltoes -25.5326
68
root 27.1735 18.4172 -10.7875 185.681 -21.2199 -167.851
lowerback -2.15106 -4.15507 7.24934
upperback 7.61047 -6.94698 3.04806
thorax 8.85906 -3.26489 -1.47651
lowerneck -0.150036 10.5631 4.24295
upperneck -2.82053 13.9648 -9.41405
head 0.171799 6.99734 -3.60626
rclavicle 3.57812e-014 2.22639e-014
rhumerus -57.9745 4.16346 -87.4008
rradius 63.9625
rwrist -6.13348
rhand -29.4934 26.2724
rfingers 7.12502
rthumb -2.82821 -3.68858
lclavicle 3.57812e-014 2.22639e-014
lhumerus -21.6261 -34.4146 84.0292
lradius 100.148
lwrist -4.34864
lhand -41.6603 -26.0335
lfingers 7.12502
lthumb -14.5679 3.4349
rfemur -41.9651 -4.28 23.0604
rtibia 51.7205
rfoot -4.53936 23.9026
rtoes -18.6818
lfemur 10.9106 -7.34388 -14.4228
ltibia 43.1786
lfoot 11.5985 2.95649
ltoes -24.9256
69
root 27.0764 18.3337 -11.0202 185.38 -21.3556 -167.484
lowerback -2.10841 -4.04949 7.65404
upperback 7.66612 -6.87048 3.19463
thorax 8.88472 -3.21371 -1.53515
lowerneck -0.488485 10.578 4.34763
upperneck -2.72157 13.9802 -9.61416
head 0.287612 6.99267 -3.6635
rclavicle -3.4191e-014 -2.38542e-015
rhumerus -56.9633 3.9246 -87.5289
rradius 64.7872
rwrist -6.00829
rhand -30.0141 26.6426
rfingers 7.12502
rthumb -3.33109 -3.3111
lclavicle -3.4191e-014 -2.38542e-015
lhumerus -22.6971 -34.1042 85.2638
lradius 99.34
lwrist -5.03507
lhand -41.6825 -25.9612
lfingers 7.12502
lthumb -14.5893 3.50571
rfemur -40.7096 -3.99833 23.2612
rtibia 51.8799
rfoot -6.55896 24.5442
rtoes -17.547
lfemur 9.86033 -7.55457 -14.1568
ltibia 46.444
lfoot 10.6117 3.34961
ltoes -24.174
70
root 26.9768 18.2478 -11.2506 185.061 -21.4528 -167.121
lowerback -1.99893 -3.91557 8.08089
upperback 7.70379 -6.74608 3.32945
thorax 8.8523 -3.13974 -1.60736
lowerneck -0.753676 10.5683 4.43254
upperneck -2.68866 13.9586 -9.81308
head 0.365526 6.97188 -3.72616
rclavicle 1.66979e-014 5.08889e-014
rhumerus -55.9451 3.67014 -87.6516
rradius 65.741
rwrist -5.95554
rhand -30.3657 26.9197
rfingers 7.12502
rthumb -3.67059 -3.02845
lclavicle 1.66979e-014 5.08889e-014
lhumerus -23.9377 -33.7589 86.6557
lradius 98.5092
lwrist -5.75764
lhand -41.6413 -25.1823
lfingers 7.12502
lthumb -14.5495 4.28741
rfemur -39.5192 -3.69137 23.436
rtibia 52.0839
rfoot -8.4496 25.195
rtoes -15.6103
lfemur 8.60035 -7.54846 -13.7568
ltibia 49.8973
lfoot 9.77842 3.19656
ltoes -23.1944
71
root 26.8763 18.1571 -11.4756 184.72 -21.5368 -166.682
lowerback -1.88702 -3.7395 8.62431
upperback 7.77238 -6.58082 3.46183
thorax 8.84885 -3.03807 -1.7436
lowerneck -1.08396 10.5514 4.54593
upperneck -2.68896 13.9229 -10.031
head 0.446934 6.9417 -3.7981
rclavicle 2.38542e-015 1.03368e-014
rhumerus -54.7359 3.32576 -87.8605
rradius 66.7693
rwrist -5.70261
rhand -30.3199 27.1477
rfingers 7.12502
rthumb -3.6264 -2.80118
lclavicle 2.38542e-015 1.03368e-014
lhumerus -25.3881 -33.3664 88.1161
lradius 97.7563
lwrist -6.33384
lhand -41.4395 -24.1967
lfingers 7.12502
lthumb -14.3551 5.28693
rfemur -38.399 -3.40357 23.7054
rtibia 52.2769
rfoot -10.3381 25.8263
rtoes -13.5653
lfemur 7.22932 -7.38347 -13.1536
ltibia 53.4157
lfoot 9.01952 2.81461
ltoes -21.7449
